<svg xmlns="http://www.w3.org/2000/svg" width="470.707" height="484.607" viewBox="0 0 470.707 484.607"><defs><style>.a{fill:#e5e7e8;}.b{fill:#ff7d47;}.c{fill:#eef4ff;}.d{fill:#d9e6fc;}.e{fill:#ffe278;}.f{fill:#ffb454;}.g{fill:#ff9d21;}</style></defs><g transform="translate(-327 -598.406)"><g transform="translate(327 598.406)"><path class="a" d="M318.269-7.489c20.4,93.928-48.715,185.878-131.378,241.747S8.169,309.767-59.728,266.228-167.661,115.821-139.955,12.149C-112.4-91.522-17.407-192.149,85.2-194.584S297.87-101.265,318.269-7.489Z" transform="translate(148.83 194.63)"/></g><g transform="translate(386.466 650.467)"><path class="b" d="M350.034,123.249v224.3H8v-224.3C104.28,53.264,65.739,81.426,172.859,2.034A10.3,10.3,0,0,1,179.017,0a10.192,10.192,0,0,1,3.207.51c.262.083.517.179.772.283s.5.221.752.352a7.532,7.532,0,0,1,.724.414,7.865,7.865,0,0,1,.7.476c104.976,77.785,66.6,49.809,164.859,121.215Z" transform="translate(-2.483)"/><path class="b" d="M427.017,123.249v224.3H256V0a10.192,10.192,0,0,1,3.207.51c.262.083.517.179.772.283s.5.221.752.352a7.531,7.531,0,0,1,.724.414,7.867,7.867,0,0,1,.7.476c104.975,77.785,66.6,49.809,164.859,121.215Z" transform="translate(-79.466)"/><path class="c" d="M310.221,10.344V253.767a10.348,10.348,0,0,1-10.344,10.344H123.344A10.348,10.348,0,0,1,113,253.767V10.344A10.348,10.348,0,0,1,123.344,0H299.877A10.348,10.348,0,0,1,310.221,10.344Z" transform="translate(-35.077)"/><path class="d" d="M354.611,10.344V253.767a10.348,10.348,0,0,1-10.344,10.344H256V0h88.267A10.348,10.348,0,0,1,354.611,10.344Z" transform="translate(-79.466)"/><path class="e" d="M160.082,283.816,16.442,178.988A10.344,10.344,0,0,0,0,187.344V397.667A10.344,10.344,0,0,0,16.467,406L160.107,300.509A10.348,10.348,0,0,0,160.082,283.816Z" transform="translate(0 -54.943)"/><path class="f" d="M432.372,178.123a10.344,10.344,0,0,0-10.784.866L277.947,283.817a10.347,10.347,0,0,0-.025,16.692L421.562,406a10.344,10.344,0,0,0,16.467-8.337V187.344a10.344,10.344,0,0,0-5.657-9.221Z" transform="translate(-84.962 -54.944)"/><path class="g" d="M.518,440.621a10.346,10.346,0,0,0,9.827,7.123h332.38a10.345,10.345,0,0,0,6.124-18.681L182.658,307.007a10.347,10.347,0,0,0-12.247,0L4.221,429.063a10.337,10.337,0,0,0-3.7,11.557Z" transform="translate(0 -94.677)"/><path class="f" d="M.518,440.621a10.346,10.346,0,0,0,9.827,7.123h166.19V305a10.328,10.328,0,0,0-6.124,2.007L4.221,429.063A10.337,10.337,0,0,0,.518,440.621Z" transform="translate(0 -94.677)"/><g transform="translate(101.171 64.892)"><path d="M159.845,106.013V94.1h4.275v11.911l11.606-4.275,1.527,4.48-11.6,3.767,7.634,10.791-3.97,2.443-7.533-10.995-7.941,10.791-3.564-2.748,7.839-10.282-11.4-4.072,1.832-4.276Z" transform="translate(-146.713 -94.102)"/></g><g transform="translate(141.167 64.892)"><path d="M217.845,106.013V94.1h4.275v11.911l11.606-4.275,1.527,4.48-11.6,3.767,7.634,10.791-3.97,2.443-7.533-10.995-7.941,10.791-3.564-2.748,7.839-10.282-11.4-4.072,1.832-4.276Z" transform="translate(-204.713 -94.102)"/></g><g transform="translate(181.163 64.892)"><path d="M275.845,106.013V94.1h4.275v11.911l11.606-4.275,1.527,4.48-11.6,3.767,7.634,10.791-3.97,2.443-7.533-10.995-7.941,10.791-3.564-2.748,7.839-10.282-11.4-4.072,1.832-4.276Z" transform="translate(-262.713 -94.102)"/></g><g transform="translate(221.159 64.892)"><path d="M333.845,106.013V94.1h4.275v11.911l11.606-4.275,1.527,4.48-11.6,3.767,7.634,10.791-3.97,2.443-7.533-10.995-7.941,10.791-3.564-2.748,7.839-10.282-11.4-4.072,1.832-4.276Z" transform="translate(-320.713 -94.102)"/></g></g></g></svg>