<svg xmlns="http://www.w3.org/2000/svg" width="31.695" height="39.593" viewBox="0 0 31.695 39.593"><path d="M5.088,39.593a2.646,2.646,0,0,1-2.715-2.674V11.78H0V7.363a2.684,2.684,0,0,1,2.736-2.7H8.113V1.226A1.215,1.215,0,0,1,9.352,0H22.119a.193.193,0,0,1,.09.045A.174.174,0,0,1,22.34,0a1.238,1.238,0,0,1,1.266,1.226v3.44h5.354a2.683,2.683,0,0,1,2.736,2.7V11.78h-2.35V36.919a2.664,2.664,0,0,1-2.736,2.674Zm-.234-2.674c0,.153.074.221.234.221H26.609c.158,0,.227-.068.227-.221V11.78H4.854ZM2.51,7.363V9.328H29.188V7.363c0-.159-.07-.244-.229-.244H2.736C2.576,7.119,2.51,7.2,2.51,7.363Zm8.084-2.7H21.1V2.453H10.594ZM20.41,34.943v-20.3h2.508v20.3Zm-5.785,0v-20.3h2.51v20.3Zm-5.791,0v-20.3h2.508v20.3Z" fill="#3a3a3a"/></svg>