<svg xmlns="http://www.w3.org/2000/svg" width="39.595" height="39.591" viewBox="0 0 39.595 39.591"><path d="M37.031,2.591a8.733,8.733,0,0,0-12.36,0L2.011,25.243a1.133,1.133,0,0,0-.321.65L.011,38.328a1.13,1.13,0,0,0,.321.953,1.152,1.152,0,0,0,.8.337.917.917,0,0,0,.152-.008L8.777,38.6a1.141,1.141,0,0,0-.3-2.261l-6.007.81,1.173-8.673L12.767,37.6a1.152,1.152,0,0,0,.8.337,1.117,1.117,0,0,0,.8-.337L37.031,14.95a8.728,8.728,0,0,0,0-12.36ZM25.11,5.375l3.8,3.8L8.237,29.858l-3.8-3.8ZM13.577,35.189,9.857,31.469,30.535,10.791l3.721,3.721ZM35.841,12.883l-9.1-9.1a6.467,6.467,0,0,1,9.1,9.1Z" transform="translate(0 -0.028)" fill="#3a3a3a"/></svg>