<svg xmlns="http://www.w3.org/2000/svg" width="18.5" height="18.5" viewBox="0 0 18.5 18.5"><defs><style>.a{fill:#12b118;}</style></defs><path class="a" d="M13.488,11.086c-.232-.116-1.362-.668-1.572-.745s-.365-.116-.519.116-.594.743-.728.9-.269.162-.5.058a6.256,6.256,0,0,1-1.852-1.145,6.993,6.993,0,0,1-1.28-1.6c-.134-.231-.015-.358.1-.474s.232-.266.348-.4a1.954,1.954,0,0,0,.229-.382.424.424,0,0,0-.019-.4c-.058-.116-.518-1.249-.711-1.7s-.375-.393-.518-.393S6.182,4.9,6.028,4.9a.869.869,0,0,0-.614.277,2.573,2.573,0,0,0-.806,1.908,4.51,4.51,0,0,0,.94,2.37,10.278,10.278,0,0,0,3.931,3.457c.55.231.979.37,1.313.485a3.189,3.189,0,0,0,1.449.093,2.372,2.372,0,0,0,1.554-1.1,1.908,1.908,0,0,0,.139-1.1c-.057-.1-.208-.162-.439-.266M9.3,16.766H9.285a7.711,7.711,0,0,1-3.9-1.064l-.278-.165-2.891.752.775-2.81L2.81,13.19A7.645,7.645,0,0,1,14.718,3.759,7.545,7.545,0,0,1,16.96,9.147,7.655,7.655,0,0,1,9.3,16.766M15.817,2.659A9.359,9.359,0,0,0,9.285,0,9.165,9.165,0,0,0,1.307,13.75L0,18.5l4.883-1.273a9.3,9.3,0,0,0,4.4,1.115h0A9.2,9.2,0,0,0,18.5,9.172a9.091,9.091,0,0,0-2.694-6.483"/></svg>