<svg xmlns="http://www.w3.org/2000/svg" width="470.707" height="484.607" viewBox="0 0 470.707 484.607">
  <g id="Grupo_7937" data-name="Grupo 7937" transform="translate(-327 -598)">
    <g id="blob-shape" transform="translate(327 598)">
      <path id="Caminho_43584" data-name="Caminho 43584" d="M318.269-7.489c20.4,93.928-48.715,185.878-131.378,241.747S8.169,309.767-59.728,266.228-167.661,115.821-139.955,12.149C-112.4-91.522-17.407-192.149,85.2-194.584S297.87-101.265,318.269-7.489Z" transform="translate(148.83 194.63)" fill="#e5e7e8"/>
    </g>
    <g id="Grupo_7952" data-name="Grupo 7952" transform="translate(347 606.595)">
      <path id="Caminho_43631" data-name="Caminho 43631" d="M369.73,463.937H68.468a68.468,68.468,0,0,1,0-136.937H369.73a68.468,68.468,0,0,1,0,136.937Z" transform="translate(0 -43.532)" fill="#f7f2f4"/>
      <g id="Grupo_7949" data-name="Grupo 7949" transform="translate(69.324 25)">
        <circle id="Elipse_16" data-name="Elipse 16" cx="21.5" cy="21.5" r="21.5" transform="translate(85.676 305.405)" fill="#6d737f"/>
        <circle id="Elipse_17" data-name="Elipse 17" cx="21.5" cy="21.5" r="21.5" transform="translate(-0.324 305.405)" fill="#6d737f"/>
        <path id="Caminho_43632" data-name="Caminho 43632" d="M296.541,137.973h-102.7A12.838,12.838,0,0,1,181,125.135V89.189a64.189,64.189,0,0,1,128.378,0v35.946A12.838,12.838,0,0,1,296.541,137.973ZM206.676,112.3H283.7V89.189a38.514,38.514,0,0,0-77.027,0Z" transform="translate(-95.414 -25)" fill="#6d737f"/>
      </g>
      <path id="Caminho_43633" data-name="Caminho 43633" d="M256,25V50.676a38.557,38.557,0,0,1,38.513,38.513V112.3H256v25.676h51.351a12.838,12.838,0,0,0,12.838-12.838V89.189A64.262,64.262,0,0,0,256,25Z" transform="translate(-36.901)" fill="#5e5f69"/>
      <path id="Caminho_43634" data-name="Caminho 43634" d="M321.45,254.522H158.838A12.838,12.838,0,0,1,146,241.685V139.838A12.838,12.838,0,0,1,158.838,127H321.45a12.838,12.838,0,0,1,12.838,12.838V241.685A12.838,12.838,0,0,1,321.45,254.522Z" transform="translate(-21.045 -14.703)" fill="#ffac2b"/>
      <g id="Grupo_7950" data-name="Grupo 7950" transform="translate(197.703 112.297)">
        <path id="Caminho_43635" data-name="Caminho 43635" d="M337.306,127H256V254.522h81.306a12.838,12.838,0,0,0,12.838-12.838V139.838A12.838,12.838,0,0,0,337.306,127Z" transform="translate(-234.604 -127)" fill="#ff981e"/>
        <path id="Caminho_43636" data-name="Caminho 43636" d="M273.793,189.838A12.838,12.838,0,0,0,260.955,177H243.838a12.831,12.831,0,0,0-4.279,24.929v5.026a12.838,12.838,0,0,0,25.676,0v-5.026A12.831,12.831,0,0,0,273.793,189.838Z" transform="translate(-231 -134.207)" fill="#ff981e"/>
      </g>
      <path id="Caminho_43637" data-name="Caminho 43637" d="M406.631,327H256V463.937H406.631a68.468,68.468,0,0,0,0-136.937Z" transform="translate(-36.901 -43.532)" fill="#dfdae0"/>
      <g id="Grupo_7951" data-name="Grupo 7951" transform="translate(240.495 330.54)">
        <circle id="Elipse_18" data-name="Elipse 18" cx="21.5" cy="21.5" r="21.5" transform="translate(-0.496 -0.135)" fill="#5e5f69"/>
        <circle id="Elipse_19" data-name="Elipse 19" cx="21.5" cy="21.5" r="21.5" transform="translate(85.504 -0.135)" fill="#5e5f69"/>
      </g>
      <path id="Caminho_43638" data-name="Caminho 43638" d="M264.559,177H256v42.793a12.838,12.838,0,0,0,12.838-12.838v-5.026A12.831,12.831,0,0,0,264.559,177Z" transform="translate(-36.901 -21.91)" fill="#ff8512"/>
    </g>
  </g>
</svg>
