<svg xmlns="http://www.w3.org/2000/svg" width="478" height="484.607" viewBox="0 0 478 484.607">
  <g id="Grupo_7954" data-name="Grupo 7954" transform="translate(-6.607)">
    <g id="blob-shape" transform="translate(6.607)">
      <path id="Caminho_43584" data-name="Caminho 43584" d="M318.269-7.489c20.4,93.928-48.715,185.878-131.378,241.747S8.169,309.767-59.728,266.228-167.661,115.821-139.955,12.149C-112.4-91.522-17.407-192.149,85.2-194.584S297.87-101.265,318.269-7.489Z" transform="translate(148.83 194.63)" fill="#fe5d6d"/>
    </g>
    <path id="Caminho_43639" data-name="Caminho 43639" d="M428.271,27.311H81.346A57.605,57.605,0,0,0,23.74,84.917V281.65a57.606,57.606,0,0,0,57.606,57.606,35.389,35.389,0,0,1,35.39,35.391v43.126c0,12.735,16.656,17.545,23.446,6.77l26.753-42.455a91.738,91.738,0,0,1,77.616-42.832H428.271a57.606,57.606,0,0,0,57.606-57.606V84.917A57.605,57.605,0,0,0,428.271,27.311Z" transform="translate(-1.27 -1.461)" fill="#fec753"/>
    <path id="Caminho_43640" data-name="Caminho 43640" d="M144.4,339.256A57.606,57.606,0,0,1,86.8,281.65V84.917A57.606,57.606,0,0,1,144.4,27.31H81.346A57.606,57.606,0,0,0,23.74,84.917V281.65a57.606,57.606,0,0,0,57.606,57.606,35.39,35.39,0,0,1,35.391,35.391v43.126c0,12.735,16.656,17.545,23.446,6.77l26.753-42.455a91.651,91.651,0,0,1,11.993-15.147A35.386,35.386,0,0,0,144.4,339.256Z" transform="translate(-1.27 -1.461)" fill="#e0a336"/>
    <g id="Grupo_7953" data-name="Grupo 7953" transform="translate(139.61 138.655)">
      <path id="Caminho_43641" data-name="Caminho 43641" d="M177.359,189.929a28.708,28.708,0,0,1,23.209,11.214q9.156,11.284,6.175,25.835a28.961,28.961,0,0,1-10.646,17.39,30.089,30.089,0,0,1-19.306,6.743h-.072a29.192,29.192,0,0,1-18.169-6.175,29.863,29.863,0,0,1-10.717-15.544,6.682,6.682,0,0,1,.993-6.1,6.3,6.3,0,0,1,5.4-2.769q5.037,0,6.387,4.756A16.737,16.737,0,0,0,166.57,234a16.089,16.089,0,0,0,10.149,3.478H177a16.714,16.714,0,0,0,10.292-3.406,16.315,16.315,0,0,0,6.1-8.943,16.588,16.588,0,0,0-2.91-14.905,16.015,16.015,0,0,0-12.919-6.672,27.453,27.453,0,0,1-19.519-8.162,26.134,26.134,0,0,1-8.091-19.377v-1.987a26.718,26.718,0,0,1,8.02-19.519,26.081,26.081,0,0,1,19.235-8.02h.426a26.186,26.186,0,0,1,15.969,5.252,26.986,26.986,0,0,1,9.8,13.415,6.466,6.466,0,0,1-.993,6.1,6.3,6.3,0,0,1-5.4,2.769h-.071a6.02,6.02,0,0,1-6.246-4.471,13.807,13.807,0,0,0-4.967-6.814,13.22,13.22,0,0,0-8.092-2.7h-.426a13,13,0,0,0-9.723,4.117,13.423,13.423,0,0,0-4.045,9.866v2.2a12.994,12.994,0,0,0,4.116,9.723,13.471,13.471,0,0,0,9.8,3.972Z" transform="translate(-147.502 -146.493)" fill="#fff"/>
      <path id="Caminho_43642" data-name="Caminho 43642" d="M294.9,146.866a6.492,6.492,0,0,1,4.756,1.987,6.375,6.375,0,0,1,1.917,4.683v90.921a6.548,6.548,0,0,1-6.673,6.673,6.523,6.523,0,0,1-4.683-1.917,6.608,6.608,0,0,1-1.917-4.756V181l-19.448,37.973a4.782,4.782,0,0,1-.782,1.065,5.851,5.851,0,0,1-2.058,1.845,6.616,6.616,0,0,1-5.11.356,6.228,6.228,0,0,1-3.832-3.265l-19.306-37.83v63.31a6.61,6.61,0,0,1-1.917,4.756,6.529,6.529,0,0,1-4.685,1.917,6.548,6.548,0,0,1-6.672-6.673v-90.92a6.371,6.371,0,0,1,1.917-4.684,6.489,6.489,0,0,1,4.755-1.987,6.2,6.2,0,0,1,5.749,3.406.2.2,0,0,0,.071.142l.071.071L262.957,201.3l26.049-50.819c0,.047.095-.117.284-.5.142-.188.188-.259.142-.212a6.69,6.69,0,0,1,.5-.568l1.987-2.342Z" transform="translate(-151.62 -146.513)" fill="#fff"/>
      <path id="Caminho_43643" data-name="Caminho 43643" d="M347.731,189.929a28.71,28.71,0,0,1,23.21,11.214q9.156,11.284,6.175,25.835a28.966,28.966,0,0,1-10.647,17.39,30.087,30.087,0,0,1-19.306,6.743h-.071a29.2,29.2,0,0,1-18.17-6.175,29.868,29.868,0,0,1-10.717-15.544,6.682,6.682,0,0,1,.994-6.1,6.3,6.3,0,0,1,5.394-2.769q5.037,0,6.388,4.756a16.741,16.741,0,0,0,5.961,8.73,16.091,16.091,0,0,0,10.15,3.478h.284a16.71,16.71,0,0,0,10.291-3.406,16.31,16.31,0,0,0,6.1-8.943,16.58,16.58,0,0,0-2.91-14.905,16.012,16.012,0,0,0-12.918-6.672,27.447,27.447,0,0,1-19.518-8.162,26.136,26.136,0,0,1-8.093-19.377v-1.987a26.717,26.717,0,0,1,8.02-19.519,26.085,26.085,0,0,1,19.235-8.02h.426a26.186,26.186,0,0,1,15.969,5.252,26.991,26.991,0,0,1,9.8,13.415,6.462,6.462,0,0,1-.995,6.1,6.3,6.3,0,0,1-5.393,2.769h-.072a6.019,6.019,0,0,1-6.245-4.471,13.8,13.8,0,0,0-4.968-6.814,13.218,13.218,0,0,0-8.092-2.7h-.426a13,13,0,0,0-9.723,4.117,13.423,13.423,0,0,0-4.045,9.866v2.2a13,13,0,0,0,4.115,9.723,13.48,13.48,0,0,0,9.8,3.972Z" transform="translate(-156.617 -146.493)" fill="#fff"/>
    </g>
    <circle id="Elipse_21" data-name="Elipse 21" cx="21.758" cy="21.758" r="21.758" transform="translate(423.261 54.423)" fill="#ffe6a9"/>
    <circle id="Elipse_22" data-name="Elipse 22" cx="15.824" cy="15.824" r="15.824" transform="translate(391.431 98.121)" fill="#ffe6a9"/>
  </g>
</svg>
